<svg id="Layer_1" data-name="Layer 1" xmlns="http://www.w3.org/2000/svg" viewBox="0 0 100 100"><defs><style>.cls-1{fill:#710f11;}</style></defs><path class="cls-1" d="M49.7,2.05A47.9,47.9,0,1,0,97.3,49.94,47.74,47.74,0,0,0,49.7,2.05ZM83.05,43.83C70.47,43,58,42.35,45.46,42.35c-15.2,0-22.66,2.61-22.66,4.2,0,5.89,10.09,16.77,17.69,28.67a10.68,10.68,0,0,1,1.65,5c0,2.89-1.51,5.61-3.17,8.33l-3.32-.17c-.28-6.69-11.33-18.08-20.18-29.92-1.38-1.93-2.62-4.71-2.62-6.52,0-2.55,1.24-5.05,3.59-7.48a25.71,25.71,0,0,1,12.44-7.37,20.65,20.65,0,0,1-2.07-7.37c0-2.32,4-5.44,7.74-6.8A37.21,37.21,0,0,1,47.4,20.65a54.6,54.6,0,0,1,17.41,2.5q12.85,4.41,21.15,11a5.34,5.34,0,0,1,1.79,3.63C87.75,39.69,85.26,42.13,83.05,43.83ZM43.67,27.4c13.13,0,21.56,4.19,29.43,8.5l-.55.62c-7.88-.74-16.86-1.13-21.56-1.13a145.17,145.17,0,0,0-18.8,1A18,18,0,0,0,35.65,31L35.24,28A59.67,59.67,0,0,1,43.67,27.4Z"/></svg>