<svg id="Layer_1" data-name="Layer 1" xmlns="http://www.w3.org/2000/svg" viewBox="0 0 16 16"><defs><style>.cls-1{fill:#710f11;}</style></defs><path class="cls-1" d="M8,.19A7.79,7.79,0,1,0,15.71,8,7.77,7.77,0,0,0,8,.19ZM13.4,7c-2.05-.13-4.07-.24-6.12-.24-2.47,0-3.68.42-3.68.68,0,1,1.64,2.73,2.87,4.67a1.67,1.67,0,0,1,.27.82,2.68,2.68,0,0,1-.51,1.35l-.54,0c-.05-1.08-1.85-2.94-3.28-4.86A2.19,2.19,0,0,1,2,8.32,1.78,1.78,0,0,1,2.56,7.1a4.17,4.17,0,0,1,2-1.2,3.32,3.32,0,0,1-.34-1.2c0-.37.65-.88,1.26-1.1A6,6,0,0,1,7.6,3.22a8.76,8.76,0,0,1,2.83.41,11.23,11.23,0,0,1,3.44,1.79.87.87,0,0,1,.29.59C14.16,6.32,13.76,6.71,13.4,7ZM7,4.32A9.19,9.19,0,0,1,11.78,5.7l-.09.1C10.41,5.68,9,5.62,8.18,5.62a24.28,24.28,0,0,0-3.06.16,2.85,2.85,0,0,0,.57-.88l-.07-.48A9,9,0,0,1,7,4.32Z"/></svg>