<svg data-name="Layer 1" xmlns="http://www.w3.org/2000/svg" viewBox="0 0 16 16"><path d="M8 .19A7.79 7.79 0 1 0 15.71 8 7.77 7.77 0 0 0 8 .19ZM13.4 7c-2.05-.13-4.07-.24-6.12-.24-2.47 0-3.68.42-3.68.68 0 1 1.64 2.73 2.87 4.67a1.67 1.67 0 0 1 .27.82 2.68 2.68 0 0 1-.51 1.35h-.54c-.05-1.08-1.85-2.94-3.28-4.86A2.19 2.19 0 0 1 2 8.32a1.78 1.78 0 0 1 .56-1.22 4.17 4.17 0 0 1 2-1.2 3.32 3.32 0 0 1-.34-1.2c0-.37.65-.88 1.26-1.1a6 6 0 0 1 2.12-.38 8.76 8.76 0 0 1 2.83.41 11.23 11.23 0 0 1 3.44 1.79.87.87 0 0 1 .29.59c0 .31-.4.7-.76.99ZM7 4.32a9.19 9.19 0 0 1 4.78 1.38l-.09.1a42.36 42.36 0 0 0-3.51-.18 24.28 24.28 0 0 0-3.06.16 2.85 2.85 0 0 0 .57-.88l-.07-.48A9 9 0 0 1 7 4.32Z" style="fill:#710f11"/></svg>